<svg xmlns="http://www.w3.org/2000/svg" fill="none" viewBox="0 0 200 200" stroke-width="4"><path stroke="#000000" stroke-linecap="round" stroke-linejoin="round" stroke-miterlimit="1.5" d="M149.973 134.114C127.636 137.389 105.374 142.155 82.7397 142.688C69.7291 142.994 56.4096 141.575 43.6957 138.809C36.7845 137.306 29.8395 134.846 23.7529 131.201C19.8648 128.872 16.1835 125.92 13.0942 122.601C-6.29436 101.772 16.7208 80.3428 35.4659 70.5728C72.2797 51.3836 115.709 51.0475 154.434 65.0935C170.949 71.0828 196.742 86.409 194.907 107.523C193.329 125.678 165.995 134.528 151.843 137.972C116.815 146.495 73.5442 148.159 39.3453 135.868C24.0996 130.388 6.17835 118.769 5.0524 100.707C3.7487 79.7865 27.0531 69.8201 43.6247 64.9318C82.906 53.3451 133.422 56.907 165.858 84.1678"></path></svg>