<svg xmlns="http://www.w3.org/2000/svg" fill="none" viewBox="0 0 420 420" stroke-width="4"><path stroke="#000000" stroke-linecap="round" stroke-linejoin="round" stroke-miterlimit="1.5" d="M315.01 216.316C286.909 214.48 258.834 211.626 230.65 210.371C212.61 209.567 194.585 209.816 176.538 210.264C159.232 210.693 141.888 210.862 124.595 211.601C119.562 211.816 107.711 214.308 103.096 211.437C102.311 210.949 104.926 211.145 105.849 211.078C107.773 210.938 109.701 210.727 111.606 210.411C117.749 209.39 123.835 208.907 130.04 208.447C148.529 207.078 167.116 206.189 185.637 205.559C240.797 203.683 295.092 203.235 350.129 208.729C351.167 208.833 348.044 208.688 347.001 208.681C344.624 208.666 342.247 208.572 339.872 208.497C333.19 208.283 326.51 208.008 319.829 207.802C299.379 207.171 278.999 205.293 258.549 204.655C214.994 203.295 171.233 204.336 127.678 205.227C112.231 205.543 84.9376 210.216 69.5 205.609"></path></svg>